<svg xmlns="http://www.w3.org/2000/svg" fill="none" viewBox="0 0 16 16"><path fill="url(#paint0_radial_408:618)" d="M14.3889 3.13264C12.9429 1.23292 10.6886 0.0489519 8.31759 0.00174869C6.46024 -0.0352271 5.1769 0.521594 4.4508 0.969244C5.42228 0.40718 6.82794 0.0883903 8.05872 0.104074C11.2249 0.144414 14.6252 2.2952 15.1302 6.17238C15.7099 10.623 12.6028 14.3376 8.23157 14.3488C3.42257 14.3611 0.497692 10.1131 1.26213 6.29758C1.30031 6.10704 1.28125 5.92173 1.34489 5.74165C1.38132 5.07076 1.63536 4.01916 2.18337 2.94467C1.62966 3.23047 0.924495 4.13472 0.576325 4.97233C0.0743947 6.17985 -0.102495 7.62388 0.0567399 8.99774C0.0687273 9.10115 0.079585 9.20427 0.0931415 9.3068C0.737233 13.0854 4.02704 15.9621 7.98918 15.9621C12.4134 15.9621 16 12.3755 16 7.95128C16 6.14232 15.4002 4.47362 14.3889 3.13264ZM1.70968 3.82832L1.70965 3.82835L1.70968 3.82832Z"/><g opacity=".67"><path fill="url(#paint1_radial_408:618)" d="M14.3889 3.13264C12.9429 1.23292 10.6886 0.0489519 8.31759 0.00174869C6.46024 -0.0352271 5.1769 0.521594 4.4508 0.969244C5.42228 0.40718 6.82794 0.0883903 8.05872 0.104074C11.2249 0.144414 14.6252 2.2952 15.1302 6.17238C15.7099 10.623 12.6028 14.3376 8.23157 14.3488C3.42257 14.3611 0.497692 10.1131 1.26213 6.29758C1.30031 6.10704 1.28125 5.92173 1.34489 5.74165C1.38132 5.07076 1.63536 4.01916 2.18337 2.94467C1.62966 3.23047 0.924495 4.13472 0.576325 4.97233C0.0743947 6.17985 -0.102495 7.62388 0.0567399 8.99774C0.0687273 9.10115 0.079585 9.20427 0.0931415 9.3068C0.737233 13.0854 4.02704 15.9621 7.98918 15.9621C12.4134 15.9621 16 12.3755 16 7.95128C16 6.14232 15.4002 4.47362 14.3889 3.13264ZM1.70968 3.82832L1.70965 3.82835L1.70968 3.82832Z" opacity=".67"/></g><path fill="url(#paint2_radial_408:618)" d="M14.3889 3.13264C12.9429 1.23292 10.6886 0.0489519 8.31759 0.00174869C6.46024 -0.0352271 5.1769 0.521594 4.4508 0.969244C5.42228 0.40718 6.82794 0.0883903 8.05872 0.104074C11.2249 0.144414 14.6252 2.2952 15.1302 6.17238C15.7099 10.623 12.6028 14.3376 8.23157 14.3488C3.42257 14.3611 0.497692 10.1131 1.26213 6.29758C1.30031 6.10704 1.28125 5.92173 1.34489 5.74165C1.38132 5.07076 1.63536 4.01916 2.18337 2.94467C1.62966 3.23047 0.924495 4.13472 0.576325 4.97233C0.0743947 6.17985 -0.102495 7.62388 0.0567399 8.99774C0.0687273 9.10115 0.079585 9.20427 0.0931415 9.3068C0.737233 13.0854 4.02704 15.9621 7.98918 15.9621C12.4134 15.9621 16 12.3755 16 7.95128C16 6.14232 15.4002 4.47362 14.3889 3.13264ZM1.70968 3.82832L1.70965 3.82835L1.70968 3.82832Z"/><path fill="url(#paint3_radial_408:618)" d="M14.3889 3.13264C12.9429 1.23292 10.6886 0.0489519 8.31759 0.00174869C6.46024 -0.0352271 5.1769 0.521594 4.4508 0.969244C5.42228 0.40718 6.82794 0.0883903 8.05872 0.104074C11.2249 0.144414 14.6252 2.2952 15.1302 6.17238C15.7099 10.623 12.6028 14.3376 8.23157 14.3488C3.42257 14.3611 0.497692 10.1131 1.26213 6.29758C1.30031 6.10704 1.28125 5.92173 1.34489 5.74165C1.38132 5.07076 1.63536 4.01916 2.18337 2.94467C1.62966 3.23047 0.924495 4.13472 0.576325 4.97233C0.0743947 6.17985 -0.102495 7.62388 0.0567399 8.99774C0.0687273 9.10115 0.079585 9.20427 0.0931415 9.3068C0.737233 13.0854 4.02704 15.9621 7.98918 15.9621C12.4134 15.9621 16 12.3755 16 7.95128C16 6.14232 15.4002 4.47362 14.3889 3.13264ZM1.70968 3.82832L1.70965 3.82835L1.70968 3.82832Z"/><path fill="url(#paint4_radial_408:618)" d="M14.3889 3.13264C12.9429 1.23292 10.6886 0.0489519 8.31759 0.00174869C6.46024 -0.0352271 5.1769 0.521594 4.4508 0.969244C5.42228 0.40718 6.82794 0.0883903 8.05872 0.104074C11.2249 0.144414 14.6252 2.2952 15.1302 6.17238C15.7099 10.623 12.6028 14.3376 8.23157 14.3488C3.42257 14.3611 0.497692 10.1131 1.26213 6.29758C1.30031 6.10704 1.28125 5.92173 1.34489 5.74165C1.38132 5.07076 1.63536 4.01916 2.18337 2.94467C1.62966 3.23047 0.924495 4.13472 0.576325 4.97233C0.0743947 6.17985 -0.102495 7.62388 0.0567399 8.99774C0.0687273 9.10115 0.079585 9.20427 0.0931415 9.3068C0.737233 13.0854 4.02704 15.9621 7.98918 15.9621C12.4134 15.9621 16 12.3755 16 7.95128C16 6.14232 15.4002 4.47362 14.3889 3.13264ZM1.70968 3.82832L1.70965 3.82835L1.70968 3.82832Z"/><path fill="url(#paint5_linear_408:618)" d="M15.1302 6.17238C15.1942 6.66385 15.2131 7.14715 15.1905 7.6182C15.4557 7.57894 15.7215 7.54336 15.9877 7.51254C15.8992 5.87295 15.3178 4.36447 14.3889 3.13264C12.9429 1.23292 10.6886 0.0489519 8.31758 0.00174869C6.46022 -0.0352271 5.17688 0.521594 4.45078 0.969244C5.42226 0.40718 6.82793 0.0883903 8.0587 0.104074C11.2249 0.144414 14.6252 2.2952 15.1302 6.17238Z"/><path fill="url(#paint6_radial_408:618)" d="M15.3249 5.95103C14.8747 1.89912 11.2526 0.0778103 8.0587 0.10407C6.82787 0.11419 5.42227 0.407177 4.45079 0.969241C3.99699 1.24901 3.76089 1.48596 3.73887 1.50859C3.76462 1.48727 3.84158 1.42406 3.96924 1.33665C3.97341 1.33373 3.97763 1.33087 3.98182 1.32797C3.98545 1.3255 3.98924 1.32298 3.99295 1.32048C4.45604 1.00118 4.97871 0.76928 5.53139 0.607704C6.37548 0.36094 7.28938 0.278122 8.16805 0.300151C11.7802 0.507956 14.3293 3.49892 14.418 6.68262C14.4914 9.31758 12.3296 11.4189 9.83755 11.5406C8.02519 11.6292 6.31799 10.7542 5.48363 9.00394C5.29801 8.61456 5.16188 8.21879 5.09089 7.74036C4.6956 5.07666 6.48863 2.8051 8.13286 2.24273C7.24571 1.46972 5.02321 1.52215 3.36901 2.73621C2.17773 3.61053 1.40494 4.94078 1.14891 6.52782C0.953711 7.73783 1.13756 8.99615 1.61693 10.12C2.10539 11.2651 2.89978 12.2746 3.89849 13.018C4.98298 13.8252 6.28889 14.2949 7.6349 14.3972C7.8334 14.4123 8.03248 14.4197 8.23155 14.4197C13.5241 14.4197 15.8206 10.4118 15.3249 5.95103Z"/><path fill="url(#paint7_radial_408:618)" d="M15.3249 5.95103C14.8747 1.89912 11.2526 0.0778103 8.0587 0.10407C6.82787 0.11419 5.42227 0.407177 4.45079 0.969241C3.99699 1.24901 3.76089 1.48596 3.73887 1.50859C3.76462 1.48727 3.84158 1.42406 3.96924 1.33665C3.97341 1.33373 3.97763 1.33087 3.98182 1.32797C3.98545 1.3255 3.98924 1.32298 3.99295 1.32048C4.45604 1.00118 4.97871 0.76928 5.53139 0.607704C6.37548 0.36094 7.28938 0.278122 8.16805 0.300151C11.7802 0.507956 14.3293 3.49892 14.418 6.68262C14.4914 9.31758 12.3296 11.4189 9.83755 11.5406C8.02519 11.6292 6.31799 10.7542 5.48363 9.00394C5.29801 8.61456 5.16188 8.21879 5.09089 7.74036C4.6956 5.07666 6.48863 2.8051 8.13286 2.24273C7.24571 1.46972 5.02321 1.52215 3.36901 2.73621C2.17773 3.61053 1.40494 4.94078 1.14891 6.52782C0.953711 7.73783 1.13756 8.99615 1.61693 10.12C2.10539 11.2651 2.89978 12.2746 3.89849 13.018C4.98298 13.8252 6.28889 14.2949 7.6349 14.3972C7.8334 14.4123 8.03248 14.4197 8.23155 14.4197C13.5241 14.4197 15.8206 10.4118 15.3249 5.95103Z"/><path fill="url(#paint8_radial_408:618)" d="M15.3249 5.95103C14.8747 1.89912 11.2526 0.0778103 8.0587 0.10407C6.82787 0.11419 5.42227 0.407177 4.45079 0.969241C3.99699 1.24901 3.76089 1.48596 3.73887 1.50859C3.76462 1.48727 3.84158 1.42406 3.96924 1.33665C3.97341 1.33373 3.97763 1.33087 3.98182 1.32797C3.98545 1.3255 3.98924 1.32298 3.99295 1.32048C4.45604 1.00118 4.97871 0.76928 5.53139 0.607704C6.37548 0.36094 7.28938 0.278122 8.16805 0.300151C11.7802 0.507956 14.3293 3.49892 14.418 6.68262C14.4914 9.31758 12.3296 11.4189 9.83755 11.5406C8.02519 11.6292 6.31799 10.7542 5.48363 9.00394C5.29801 8.61456 5.16188 8.21879 5.09089 7.74036C4.6956 5.07666 6.48863 2.8051 8.13286 2.24273C7.24571 1.46972 5.02321 1.52215 3.36901 2.73621C2.17773 3.61053 1.40494 4.94078 1.14891 6.52782C0.953711 7.73783 1.13756 8.99615 1.61693 10.12C2.10539 11.2651 2.89978 12.2746 3.89849 13.018C4.98298 13.8252 6.28889 14.2949 7.6349 14.3972C7.8334 14.4123 8.03248 14.4197 8.23155 14.4197C13.5241 14.4197 15.8206 10.4118 15.3249 5.95103Z" opacity=".53"/><path fill="url(#paint9_radial_408:618)" d="M15.3249 5.95103C14.8747 1.89912 11.2526 0.0778103 8.0587 0.10407C6.82787 0.11419 5.42227 0.407177 4.45079 0.969241C3.99699 1.24901 3.76089 1.48596 3.73887 1.50859C3.76462 1.48727 3.84158 1.42406 3.96924 1.33665C3.97341 1.33373 3.97763 1.33087 3.98182 1.32797C3.98545 1.3255 3.98924 1.32298 3.99295 1.32048C4.45604 1.00118 4.97871 0.76928 5.53139 0.607704C6.37548 0.36094 7.28938 0.278122 8.16805 0.300151C11.7802 0.507956 14.3293 3.49892 14.418 6.68262C14.4914 9.31758 12.3296 11.4189 9.83755 11.5406C8.02519 11.6292 6.31799 10.7542 5.48363 9.00394C5.29801 8.61456 5.16188 8.21879 5.09089 7.74036C4.6956 5.07666 6.48863 2.8051 8.13286 2.24273C7.24571 1.46972 5.02321 1.52215 3.36901 2.73621C2.17773 3.61053 1.40494 4.94078 1.14891 6.52782C0.953711 7.73783 1.13756 8.99615 1.61693 10.12C2.10539 11.2651 2.89978 12.2746 3.89849 13.018C4.98298 13.8252 6.28889 14.2949 7.6349 14.3972C7.8334 14.4123 8.03248 14.4197 8.23155 14.4197C13.5241 14.4197 15.8206 10.4118 15.3249 5.95103Z" opacity=".53"/><path fill="url(#paint10_radial_408:618)" d="M9.83756 11.5406C13.2581 11.3331 14.7216 8.50862 14.8133 6.50356C14.9566 3.37254 13.0943 -0.00404954 8.16805 0.300148C7.28938 0.278119 6.37548 0.360937 5.5314 0.607701C4.79145 0.833436 4.27753 1.12857 3.99295 1.32047C3.98927 1.32301 3.9855 1.32541 3.98182 1.32796C3.9774 1.33097 3.97355 1.3337 3.96924 1.33665C3.89264 1.39019 3.81773 1.44622 3.74458 1.50467C3.88155 1.41119 5.58042 0.410294 7.94072 0.719321C10.7683 1.08953 13.3545 3.28468 13.3545 6.181C13.3545 8.40945 11.6281 10.1107 9.6069 9.98928C6.60384 9.80883 5.84763 6.73676 7.40909 5.40939C6.98784 5.31888 6.19619 5.49611 5.64504 6.31822C5.15049 7.05588 5.17841 8.19572 5.48363 9.00394C6.318 10.7542 8.02636 11.6505 9.83756 11.5406Z"/><path fill="url(#paint11_linear_408:618)" d="M14.3888 3.13266C14.1744 2.8509 13.9403 2.58701 13.6925 2.33813C13.4937 2.12773 13.2808 1.93387 13.0571 1.75433C13.1859 1.86702 13.31 1.98531 13.4268 2.11136C13.86 2.579 14.2031 3.13145 14.4032 3.73627C14.821 4.99917 14.7937 6.57958 13.996 7.82088C13.0454 9.30007 11.4979 10.0303 9.82504 9.99469C9.7527 9.99501 9.68007 9.9937 9.60688 9.9893C6.60386 9.80884 5.84763 6.73677 7.40912 5.40942C6.98782 5.3189 6.19624 5.49615 5.64506 6.31823C5.1505 7.0559 5.17841 8.19573 5.48365 9.00393C5.29802 8.61459 5.1619 8.2188 5.09091 7.74039C4.69561 5.07669 6.48865 2.8051 8.1329 2.24273C7.24573 1.46974 5.02324 1.52217 3.36901 2.73623C2.4051 3.44367 1.71548 4.4498 1.35157 5.64877C1.40506 4.97604 1.65979 3.97125 2.18333 2.94468C1.62967 3.23047 0.924459 4.13475 0.576352 4.97232C0.0744196 6.17985 -0.102504 7.6239 0.056706 8.99777C0.0687513 9.10114 0.079592 9.20427 0.0931251 9.30683C0.737191 13.0854 4.02703 15.9621 7.98921 15.9621C12.4134 15.9621 16 12.3755 16 7.95128C16 6.14234 15.4001 4.47365 14.3888 3.13266Z"/><path fill="url(#paint12_linear_408:618)" d="M14.4031 3.73626C14.203 3.13143 13.86 2.57897 13.4268 2.11137C12.9164 1.56047 12.2808 1.14184 11.6079 0.815833C11.0355 0.538475 10.4376 0.319583 9.81983 0.183561C8.71323 -0.0600731 7.55222 -0.0557525 6.50679 0.164278C5.37023 0.403488 4.37074 0.894177 3.73865 1.50763C4.2126 1.22031 4.87374 0.987283 5.34483 0.868536C7.53095 0.317483 9.93818 0.914345 11.5794 2.48459C11.9094 2.80029 12.2053 3.15354 12.4452 3.54263C13.4243 5.13062 13.3316 7.127 12.5683 8.30442C12.0012 9.17911 10.7868 9.99967 9.65378 9.99076C11.392 10.0818 13.013 9.35052 13.996 7.82089C14.7937 6.57957 14.821 4.99916 14.4031 3.73626Z"/><path fill="url(#paint13_linear_408:618)" d="M14.4031 3.73626C14.203 3.13143 13.86 2.57897 13.4268 2.11137C12.9164 1.56047 12.2808 1.14184 11.6079 0.815833C11.0355 0.538475 10.4376 0.319583 9.81983 0.183561C8.71323 -0.0600731 7.55222 -0.0557525 6.50679 0.164278C5.37023 0.403488 4.37074 0.894177 3.73865 1.50763C4.2126 1.22031 4.87374 0.987283 5.34483 0.868536C7.53095 0.317483 9.93818 0.914345 11.5794 2.48459C11.9094 2.80029 12.2053 3.15354 12.4452 3.54263C13.4243 5.13062 13.3316 7.127 12.5683 8.30442C12.0012 9.17911 10.7868 9.99967 9.65378 9.99076C11.392 10.0818 13.013 9.35052 13.996 7.82089C14.7937 6.57957 14.821 4.99916 14.4031 3.73626Z"/><defs><radialGradient id="paint0_radial_408:618" cx="0" cy="0" r="1" gradientTransform="translate(14.3063 3.02367) scale(18.156)" gradientUnits="userSpaceOnUse"><stop stop-color="#FFF44F"/><stop offset=".295" stop-color="#FF980E"/><stop offset=".432" stop-color="#FF5D36"/><stop offset=".53" stop-color="#FF3750"/><stop offset=".749" stop-color="#F5156C"/><stop offset=".765" stop-color="#F1136E"/><stop offset=".88" stop-color="#DA057A"/><stop offset=".953" stop-color="#D2007F"/></radialGradient><radialGradient id="paint1_radial_408:618" cx="0" cy="0" r="1" gradientTransform="translate(1.3259 3.77475) scale(10.7452)" gradientUnits="userSpaceOnUse"><stop stop-color="#B5007F"/><stop offset="1" stop-color="#F5156C" stop-opacity="0"/></radialGradient><radialGradient id="paint2_radial_408:618" cx="0" cy="0" r="1" gradientTransform="translate(15.8583 1.99059) scale(21.3199)" gradientUnits="userSpaceOnUse"><stop stop-color="#FD0" stop-opacity=".6"/><stop offset=".084" stop-color="#FFD801" stop-opacity=".524"/><stop offset=".182" stop-color="#FECA05" stop-opacity=".435"/><stop offset=".288" stop-color="#FEB20C" stop-opacity=".339"/><stop offset=".4" stop-color="#FD9115" stop-opacity=".239"/><stop offset=".515" stop-color="#FB6621" stop-opacity=".134"/><stop offset=".633" stop-color="#F9332F" stop-opacity=".028"/><stop offset=".664" stop-color="#F92433" stop-opacity="0"/></radialGradient><radialGradient id="paint3_radial_408:618" cx="0" cy="0" r="1" gradientTransform="translate(8.45698 8.88085) scale(27.5043)" gradientUnits="userSpaceOnUse"><stop offset=".153" stop-color="#960E18"/><stop offset=".206" stop-color="#CC2335" stop-opacity=".554"/><stop offset=".249" stop-color="#F13148" stop-opacity=".191"/><stop offset=".272" stop-color="#FF3750" stop-opacity="0"/></radialGradient><radialGradient id="paint4_radial_408:618" cx="0" cy="0" r="1" gradientTransform="translate(6.37566 8.53501) scale(27.5043)" gradientUnits="userSpaceOnUse"><stop offset=".113" stop-color="#960E18"/><stop offset=".189" stop-color="#CC2335" stop-opacity=".554"/><stop offset=".252" stop-color="#F13148" stop-opacity=".191"/><stop offset=".284" stop-color="#FF3750" stop-opacity="0"/></radialGradient><linearGradient id="paint5_linear_408:618" x1="9.166" x2="13.872" y1="1.551" y2="9.702" gradientUnits="userSpaceOnUse"><stop stop-color="#FFBC04"/><stop offset=".26" stop-color="#FFA202" stop-opacity=".489"/><stop offset=".508" stop-color="#FF8E00" stop-opacity="0"/></linearGradient><radialGradient id="paint6_radial_408:618" cx="0" cy="0" r="1" gradientTransform="translate(13.9253 2.41025) scale(17.0415)" gradientUnits="userSpaceOnUse"><stop stop-color="#FF980E"/><stop offset=".295" stop-color="#FF7139"/><stop offset=".485" stop-color="#FF5B51"/><stop offset=".626" stop-color="#FF4F5E"/><stop offset=".737" stop-color="#FF4055"/><stop offset=".843" stop-color="#FF3750"/></radialGradient><radialGradient id="paint7_radial_408:618" cx="0" cy="0" r="1" gradientTransform="translate(13.9253 2.41025) scale(17.0415)" gradientUnits="userSpaceOnUse"><stop offset=".084" stop-color="#FFDE08"/><stop offset=".208" stop-color="#FFD609" stop-opacity=".832"/><stop offset=".403" stop-color="#FFBF0B" stop-opacity=".568"/><stop offset=".644" stop-color="#FF9B0F" stop-opacity=".242"/><stop offset=".822" stop-color="#FF7B12" stop-opacity="0"/></radialGradient><radialGradient id="paint8_radial_408:618" cx="0" cy="0" r="1" gradientTransform="translate(9.98813 7.71176) rotate(75.6865) scale(8.35795 8.72233)" gradientUnits="userSpaceOnUse"><stop offset=".363" stop-color="#FF3750"/><stop offset=".411" stop-color="#FF444B" stop-opacity=".789"/><stop offset=".59" stop-color="#FF7139" stop-opacity="0"/></radialGradient><radialGradient id="paint9_radial_408:618" cx="0" cy="0" r="1" gradientTransform="translate(8.54749 8.41956) rotate(75.6865) scale(8.35795 8.36529)" gradientUnits="userSpaceOnUse"><stop offset=".216" stop-color="#FF3750" stop-opacity=".8"/><stop offset=".27" stop-color="#FF444B" stop-opacity=".632"/><stop offset=".474" stop-color="#FF7139" stop-opacity="0"/></radialGradient><radialGradient id="paint10_radial_408:618" cx="0" cy="0" r="1" gradientTransform="translate(17.3263 0.485236) scale(28.8033)" gradientUnits="userSpaceOnUse"><stop offset=".054" stop-color="#FFF44F"/><stop offset=".457" stop-color="#FF980E"/><stop offset=".521" stop-color="#FF8424"/><stop offset=".587" stop-color="#FF7634"/><stop offset=".639" stop-color="#FF7139"/></radialGradient><linearGradient id="paint11_linear_408:618" x1="11.804" x2="3.639" y1="1.408" y2="15.551" gradientUnits="userSpaceOnUse"><stop stop-color="#FFF44F" stop-opacity=".8"/><stop offset=".75" stop-color="#FFF44F" stop-opacity="0"/></linearGradient><linearGradient id="paint12_linear_408:618" x1="9.204" x2="9.204" y1="10.039" y2=".101" gradientUnits="userSpaceOnUse"><stop stop-color="#3A8EE6"/><stop offset=".236" stop-color="#5C79F0"/><stop offset=".629" stop-color="#9059FF"/><stop offset="1" stop-color="#C139E6"/></linearGradient><linearGradient id="paint13_linear_408:618" x1="5.547" x2="13.611" y1=".056" y2="8.12" gradientUnits="userSpaceOnUse"><stop offset=".805" stop-color="#9059FF" stop-opacity="0"/><stop offset="1" stop-color="#6E008B" stop-opacity=".5"/></linearGradient></defs></svg>